<?xml version="1.0" encoding="UTF-8"?>
<!DOCTYPE svg PUBLIC "-//W3C//DTD SVG 1.1//EN" "http://www.w3.org/Graphics/SVG/1.1/DTD/svg11.dtd">
<svg xmlns="http://www.w3.org/2000/svg" version="1.1" width="1584px" height="1584px" style="shape-rendering:geometricPrecision; text-rendering:geometricPrecision; image-rendering:optimizeQuality; fill-rule:evenodd; clip-rule:evenodd" xmlns:xlink="http://www.w3.org/1999/xlink">
<g><path style="opacity:1" fill="#a4e92e" d="M 1152.5,45.5 C 1152.5,164.5 1152.5,283.5 1152.5,402.5C 1137.32,402.171 1122.32,402.504 1107.5,403.5C 1107.5,432.833 1107.5,462.167 1107.5,491.5C 1122.32,492.496 1137.32,492.829 1152.5,492.5C 1152.5,611.5 1152.5,730.5 1152.5,849.5C 1094.83,849.333 1037.17,849.5 979.5,850C 864.599,888.634 749.599,926.634 634.5,964C 673.192,848.924 711.692,733.757 750,618.5C 750.333,480.833 750.667,343.167 751,205.5C 760.806,137.022 796.972,88.1891 859.5,59C 876.56,52.2024 894.227,47.869 912.5,46C 992.499,45.5 1072.5,45.3333 1152.5,45.5 Z"/></g>
<g><path style="opacity:1" fill="#20c73d" d="M 1152.5,45.5 C 1235.19,45.0252 1317.86,45.5252 1400.5,47C 1467.69,58.8695 1514.86,96.0362 1542,158.5C 1549.17,177.18 1553.17,196.513 1554,216.5C 1554.17,293.5 1554.33,370.5 1554.5,447.5C 1554.65,529.181 1554.15,610.847 1553,692.5C 1541.97,762.422 1503.8,810.922 1438.5,838C 1422.37,844.093 1405.7,847.76 1388.5,849C 1309.83,849.5 1231.17,849.667 1152.5,849.5C 1152.5,730.5 1152.5,611.5 1152.5,492.5C 1137.32,492.829 1122.32,492.496 1107.5,491.5C 1122.5,491.5 1137.5,491.5 1152.5,491.5C 1167.17,491.5 1181.83,491.5 1196.5,491.5C 1196.5,461.833 1196.5,432.167 1196.5,402.5C 1181.83,402.5 1167.17,402.5 1152.5,402.5C 1152.5,283.5 1152.5,164.5 1152.5,45.5 Z"/></g>
<g><path style="opacity:0.998" fill="#3a69ac" d="M 591.5,618.5 C 479.473,506.14 367.473,393.806 255.5,281.5C 278.472,270.238 302.805,266.071 328.5,269C 356.639,272.48 381.305,283.48 402.5,302C 461.361,360.527 519.861,419.361 578,478.5C 603.701,514.679 611.035,554.346 600,597.5C 598.02,604.961 595.187,611.961 591.5,618.5 Z"/></g>
<g><path style="opacity:1" fill="#f25a3c" d="M 255.5,281.5 C 367.473,393.806 479.473,506.14 591.5,618.5C 585.848,630.467 578.681,641.467 570,651.5C 537.299,684.368 504.465,717.035 471.5,749.5C 355.118,634.118 239.451,518.118 124.5,401.5C 136.167,389.167 148.167,377.167 160.5,365.5C 164.5,363.5 167.5,360.5 169.5,356.5C 172.5,352.833 175.833,349.5 179.5,346.5C 183.167,344.833 185.833,342.167 187.5,338.5C 198.992,326.508 210.659,314.675 222.5,303C 232.533,294.319 243.533,287.152 255.5,281.5 Z"/></g>
<g><path style="opacity:0.725" fill="#f78c73" d="M 187.5,338.5 C 185.833,342.167 183.167,344.833 179.5,346.5C 181.833,343.5 184.5,340.833 187.5,338.5 Z"/></g>
<g><path style="opacity:0.725" fill="#f78a71" d="M 169.5,356.5 C 167.5,360.5 164.5,363.5 160.5,365.5C 163.167,362.167 166.167,359.167 169.5,356.5 Z"/></g>
<g><path style="opacity:0.999" fill="#ff7f40" d="M 124.5,401.5 C 239.451,518.118 355.118,634.118 471.5,749.5C 460.079,762.232 453.579,777.232 452,794.5C 449.972,817.944 452.306,840.944 459,863.5C 474.712,912.275 498.712,956.275 531,995.5C 542.671,1008.67 554.504,1021.67 566.5,1034.5C 492.583,1106.92 419.083,1179.92 346,1253.5C 345.536,1254.09 345.369,1254.76 345.5,1255.5C 243.97,1155.77 162.803,1041.44 102,912.5C 75.985,855.454 56.985,796.12 45,734.5C 34.7077,679.363 33.3744,624.03 41,568.5C 51.3908,503.718 79.2241,448.052 124.5,401.5 Z"/></g>
<g><path style="opacity:1" fill="#cdecb7" d="M 929.5,491.5 C 928.502,462.005 928.169,432.338 928.5,402.5C 958.5,402.5 988.5,402.5 1018.5,402.5C 1018.5,432.5 1018.5,462.5 1018.5,492.5C 988.662,492.831 958.995,492.498 929.5,491.5 Z"/></g>
<g><path style="opacity:1" fill="#e2eefe" d="M 929.5,491.5 C 929.5,462.167 929.5,432.833 929.5,403.5C 958.833,403.5 988.167,403.5 1017.5,403.5C 1017.5,432.833 1017.5,462.167 1017.5,491.5C 988.167,491.5 958.833,491.5 929.5,491.5 Z"/></g>
<g><path style="opacity:1" fill="#e2edfe" d="M 1107.5,403.5 C 1122.5,403.5 1137.5,403.5 1152.5,403.5C 1152.5,432.833 1152.5,462.167 1152.5,491.5C 1137.5,491.5 1122.5,491.5 1107.5,491.5C 1107.5,462.167 1107.5,432.833 1107.5,403.5 Z"/></g>
<g><path style="opacity:1" fill="#d4e1f3" d="M 1107.5,403.5 C 1122.32,402.504 1137.32,402.171 1152.5,402.5C 1167.17,402.5 1181.83,402.5 1196.5,402.5C 1196.5,432.167 1196.5,461.833 1196.5,491.5C 1181.83,491.5 1167.17,491.5 1152.5,491.5C 1152.5,462.167 1152.5,432.833 1152.5,403.5C 1137.5,403.5 1122.5,403.5 1107.5,403.5 Z"/></g>
<g><path style="opacity:1" fill="#d4e1f4" d="M 1286.5,402.5 C 1316.17,402.5 1345.83,402.5 1375.5,402.5C 1375.5,432.167 1375.5,461.833 1375.5,491.5C 1345.83,491.5 1316.17,491.5 1286.5,491.5C 1286.5,461.833 1286.5,432.167 1286.5,402.5 Z"/></g>
<g><path style="opacity:1" fill="#05457f" d="M 1317.5,1345.5 C 1206.42,1232.92 1094.75,1120.75 982.5,1009C 981.906,1008.54 981.239,1008.37 980.5,1008.5C 1019.6,990.011 1058.93,989.844 1098.5,1008C 1109.19,1013.67 1119.19,1020.34 1128.5,1028C 1185,1084.5 1241.5,1141 1298,1197.5C 1331.11,1238.14 1339.44,1283.47 1323,1333.5C 1321.39,1337.71 1319.56,1341.71 1317.5,1345.5 Z"/></g>
<g><path style="opacity:1" fill="#e63a3a" d="M 980.5,1008.5 C 981.239,1008.37 981.906,1008.54 982.5,1009C 1094.75,1120.75 1206.42,1232.92 1317.5,1345.5C 1312.18,1356.81 1305.34,1367.14 1297,1376.5C 1263.97,1409.7 1230.8,1442.7 1197.5,1475.5C 1081.5,1360.17 965.833,1244.5 850.5,1128.5C 868.527,1110.14 886.527,1091.81 904.5,1073.5C 908.167,1071.83 910.833,1069.17 912.5,1065.5C 925.607,1051.56 939.274,1038.06 953.5,1025C 961.875,1018.45 970.875,1012.95 980.5,1008.5 Z"/></g>
<g><path style="opacity:0.999" fill="#f25a3c" d="M 566.5,1034.5 C 600.858,1069.35 639.858,1097.85 683.5,1120C 710.004,1133.61 738.004,1142.61 767.5,1147C 793.093,1151.26 817.426,1147.59 840.5,1136C 843.729,1133.26 847.062,1130.76 850.5,1128.5C 965.833,1244.5 1081.5,1360.17 1197.5,1475.5C 1153.47,1518.68 1100.81,1545.85 1039.5,1557C 988.235,1565.32 936.901,1565.65 885.5,1558C 818.643,1546.94 754.31,1527.6 692.5,1500C 562.006,1439.31 446.339,1357.81 345.5,1255.5C 345.369,1254.76 345.536,1254.09 346,1253.5C 419.083,1179.92 492.583,1106.92 566.5,1034.5 Z"/></g>
<g><path style="opacity:0.737" fill="#f07a71" d="M 912.5,1065.5 C 910.833,1069.17 908.167,1071.83 904.5,1073.5C 906.833,1070.5 909.5,1067.83 912.5,1065.5 Z"/></g>
</svg>
