<?xml version="1.0" encoding="UTF-8"?>
<!DOCTYPE svg PUBLIC "-//W3C//DTD SVG 1.1//EN" "http://www.w3.org/Graphics/SVG/1.1/DTD/svg11.dtd">
<svg xmlns="http://www.w3.org/2000/svg" version="1.1" width="7735px" height="1777px" style="shape-rendering:geometricPrecision; text-rendering:geometricPrecision; image-rendering:optimizeQuality; fill-rule:evenodd; clip-rule:evenodd" xmlns:xlink="http://www.w3.org/1999/xlink">
<g><path style="opacity:0.998" fill="#a3e92e" d="M 1028.5,-0.5 C 1121.17,-0.5 1213.83,-0.5 1306.5,-0.5C 1306.5,138.833 1306.5,278.167 1306.5,417.5C 1288.99,417.17 1271.66,417.503 1254.5,418.5C 1254.5,452.833 1254.5,487.167 1254.5,521.5C 1271.66,522.497 1288.99,522.83 1306.5,522.5C 1306.5,661.833 1306.5,801.167 1306.5,940.5C 1239.17,940.333 1171.83,940.5 1104.5,941C 969.815,986.285 835.149,1030.78 700.5,1074.5C 745.428,940.215 790.262,805.881 835,671.5C 835.333,511.833 835.667,352.167 836,192.5C 845.761,107.76 889.594,48.2597 967.5,14C 987.326,6.45857 1007.66,1.62524 1028.5,-0.5 Z"/></g>
<g><path style="opacity:0.999" fill="#1fc73d" d="M 1306.5,-0.5 C 1398.83,-0.5 1491.17,-0.5 1583.5,-0.5C 1657.38,7.68023 1713.21,43.6802 1751,107.5C 1764.99,133.458 1773.32,161.124 1776,190.5C 1776.67,376.833 1776.67,563.167 1776,749.5C 1767.14,824.431 1729.98,880.264 1664.5,917C 1638.72,930.146 1611.39,937.813 1582.5,940C 1490.5,940.5 1398.5,940.667 1306.5,940.5C 1306.5,801.167 1306.5,661.833 1306.5,522.5C 1288.99,522.83 1271.66,522.497 1254.5,521.5C 1271.83,521.5 1289.17,521.5 1306.5,521.5C 1323.83,521.5 1341.17,521.5 1358.5,521.5C 1358.5,486.833 1358.5,452.167 1358.5,417.5C 1341.17,417.5 1323.83,417.5 1306.5,417.5C 1306.5,278.167 1306.5,138.833 1306.5,-0.5 Z"/></g>
<g><path style="opacity:0.995" fill="#3868ac" d="M 651.5,669.5 C 650.317,668.496 648.984,667.662 647.5,667C 519.189,538.689 390.689,410.189 262,281.5C 260.668,279.34 259.168,277.34 257.5,275.5C 286.631,261.647 317.298,257.147 349.5,262C 378.578,266.474 404.245,278.14 426.5,297C 494,364.5 561.5,432 629,499.5C 669.429,551.675 676.929,608.342 651.5,669.5 Z"/></g>
<g><path style="opacity:0.999" fill="#f15a3c" d="M 257.5,275.5 C 259.168,277.34 260.668,279.34 262,281.5C 390.689,410.189 519.189,538.689 647.5,667C 648.984,667.662 650.317,668.496 651.5,669.5C 645.507,682.158 638.007,693.824 629,704.5C 589.299,744.368 549.465,784.035 509.5,823.5C 373.833,688.167 238.167,552.833 102.5,417.5C 141.299,378.201 180.299,339.035 219.5,300C 231.033,290.067 243.7,281.901 257.5,275.5 Z"/></g>
<g><path style="opacity:0.998" fill="#fe7e3f" d="M 102.5,417.5 C 238.167,552.833 373.833,688.167 509.5,823.5C 493.403,843.116 485.403,865.782 485.5,891.5C 487.036,932.606 496.87,971.606 515,1008.5C 531.913,1044.02 552.58,1077.02 577,1107.5C 591.003,1123.67 605.17,1139.67 619.5,1155.5C 533.467,1241.87 447.467,1328.2 361.5,1414.5C 247.883,1302.96 156.05,1175.62 86,1032.5C 48.5724,955.216 22.5724,874.216 8,789.5C 3.32023,759.517 0.486896,729.517 -0.5,699.5C -0.5,693.5 -0.5,687.5 -0.5,681.5C 0.508414,621.302 13.3417,563.635 38,508.5C 54.3127,474.376 75.8127,444.042 102.5,417.5 Z"/></g>
<g><path style="opacity:1" fill="#e2edfe" d="M 1045.5,417.5 C 1080.17,417.5 1114.83,417.5 1149.5,417.5C 1149.5,452.167 1149.5,486.833 1149.5,521.5C 1114.83,521.5 1080.17,521.5 1045.5,521.5C 1045.5,486.833 1045.5,452.167 1045.5,417.5 Z"/></g>
<g><path style="opacity:1" fill="#e2edfe" d="M 1254.5,418.5 C 1271.83,418.5 1289.17,418.5 1306.5,418.5C 1306.5,452.833 1306.5,487.167 1306.5,521.5C 1289.17,521.5 1271.83,521.5 1254.5,521.5C 1254.5,487.167 1254.5,452.833 1254.5,418.5 Z"/></g>
<g><path style="opacity:1" fill="#d4e1f3" d="M 1254.5,418.5 C 1271.66,417.503 1288.99,417.17 1306.5,417.5C 1323.83,417.5 1341.17,417.5 1358.5,417.5C 1358.5,452.167 1358.5,486.833 1358.5,521.5C 1341.17,521.5 1323.83,521.5 1306.5,521.5C 1306.5,487.167 1306.5,452.833 1306.5,418.5C 1289.17,418.5 1271.83,418.5 1254.5,418.5 Z"/></g>
<g><path style="opacity:1" fill="#d4e1f4" d="M 1567.5,418.5 C 1567.5,452.833 1567.5,487.167 1567.5,521.5C 1532.83,521.5 1498.17,521.5 1463.5,521.5C 1463.5,487.167 1463.5,452.833 1463.5,418.5C 1498.17,418.5 1532.83,418.5 1567.5,418.5 Z"/></g>
<g><path style="opacity:0.993" fill="#f8f8f8" d="M 2460.5,484.5 C 2489.5,484.333 2518.5,484.5 2547.5,485C 2600.05,486.312 2650.72,496.646 2699.5,516C 2782.56,552.892 2820.4,617.059 2813,708.5C 2809.52,753.606 2792.35,792.439 2761.5,825C 2744.02,840.127 2724.69,852.46 2703.5,862C 2782.32,887.824 2828.49,941.657 2842,1023.5C 2852.8,1147.01 2798.63,1225.51 2679.5,1259C 2635.92,1270.47 2591.58,1276.47 2546.5,1277C 2496.67,1278.19 2447,1275.85 2397.5,1270C 2367.32,1266.43 2337.98,1259.43 2309.5,1249C 2290.36,1240.19 2279.19,1225.36 2276,1204.5C 2275.83,1095 2275.67,985.5 2275.5,876C 2275.34,764.471 2275.84,652.971 2277,541.5C 2279.65,529.531 2286.15,520.365 2296.5,514C 2310.53,507.212 2325.2,502.212 2340.5,499C 2380.22,490.681 2420.22,485.847 2460.5,484.5 Z M 2470.5,569.5 C 2494.5,569.333 2518.5,569.5 2542.5,570C 2579.49,570.94 2614.82,578.94 2648.5,594C 2688.53,614.862 2708.53,648.029 2708.5,693.5C 2706.45,755.811 2675.78,796.311 2616.5,815C 2600.11,819.342 2583.44,822.009 2566.5,823C 2503.5,823.5 2440.5,823.667 2377.5,823.5C 2377.17,742.497 2377.5,661.497 2378.5,580.5C 2409.07,574.919 2439.74,571.252 2470.5,569.5 Z M 2377.5,907.5 C 2446.18,907.045 2514.85,907.545 2583.5,909C 2617.02,911.211 2648.36,920.544 2677.5,937C 2718.06,963.262 2738.39,1000.76 2738.5,1049.5C 2737.5,1115.34 2705.5,1157.84 2642.5,1177C 2616.73,1184.8 2590.4,1189.46 2563.5,1191C 2501.31,1194.25 2439.65,1190.09 2378.5,1178.5C 2377.5,1088.17 2377.17,997.836 2377.5,907.5 Z"/></g>
<g><path style="opacity:0.994" fill="#f8f8f8" d="M 3269.5,491.5 C 3284.36,490.361 3298.69,492.527 3312.5,498C 3325,505.182 3331.83,516.015 3333,530.5C 3333.5,774.166 3333.67,1017.83 3333.5,1261.5C 3324.93,1263.97 3316.26,1266.13 3307.5,1268C 3289.49,1270.9 3271.82,1269.57 3254.5,1264C 3239.22,1256.29 3231.38,1243.79 3231,1226.5C 3230.33,984.5 3230.33,742.5 3231,500.5C 3243.6,496.016 3256.44,493.016 3269.5,491.5 Z"/></g>
<g><path style="opacity:0.989" fill="#f8f8f8" d="M 7734.5,1206.5 C 7734.5,1212.83 7734.5,1219.17 7734.5,1225.5C 7732.91,1235.07 7729.08,1243.73 7723,1251.5C 7716.45,1257.86 7708.61,1261.69 7699.5,1263C 7567.5,1263.67 7435.5,1263.67 7303.5,1263C 7285.23,1261.05 7271.39,1252.22 7262,1236.5C 7258.78,1229.5 7256.78,1222.17 7256,1214.5C 7255.33,976.5 7255.33,738.5 7256,500.5C 7280.28,491.11 7305.12,489.277 7330.5,495C 7347.3,500.464 7356.8,511.964 7359,529.5C 7359.5,744.5 7359.67,959.5 7359.5,1174.5C 7479.83,1174.33 7600.17,1174.5 7720.5,1175C 7724.19,1178.21 7727.02,1182.04 7729,1186.5C 7731.48,1193.12 7733.32,1199.78 7734.5,1206.5 Z"/></g>
<g><path style="opacity:0.99" fill="#f8f8f8" d="M 3755.5,497.5 C 3922.17,497.333 4088.83,497.5 4255.5,498C 4279.21,518.53 4285.71,543.697 4275,573.5C 4271,580.833 4267,588.167 4263,595.5C 4122.55,788.947 3981.72,982.114 3840.5,1175C 3985.83,1175.17 4131.17,1175.67 4276.5,1176.5C 4286.97,1192.63 4290.8,1210.3 4288,1229.5C 4285.02,1247.81 4274.52,1258.98 4256.5,1263C 4082.5,1263.67 3908.5,1263.67 3734.5,1263C 3709.18,1240.05 3703.68,1212.89 3718,1181.5C 3722,1174.83 3726,1168.17 3730,1161.5C 3869.83,969.667 4009.67,777.833 4149.5,586C 4010.17,585.667 3870.83,585.333 3731.5,585C 3718.07,563.212 3715.9,540.379 3725,516.5C 3732.1,505.203 3742.26,498.87 3755.5,497.5 Z"/></g>
<g><path style="opacity:0.99" fill="#f7f7f7" d="M 4711.5,497.5 C 4852.74,497.168 4993.9,497.501 5135,498.5C 5146.97,520.449 5148.64,543.116 5140,566.5C 5135.13,575.705 5127.63,581.538 5117.5,584C 4999.54,585.49 4881.54,585.99 4763.5,585.5C 4763.5,666.167 4763.5,746.833 4763.5,827.5C 4874.17,827.333 4984.83,827.5 5095.5,828C 5106.72,846.958 5109.55,867.125 5104,888.5C 5099.43,902.403 5089.93,910.57 5075.5,913C 4971.5,913.5 4867.5,913.667 4763.5,913.5C 4763.5,1001.17 4763.5,1088.83 4763.5,1176.5C 4889.17,1176.33 5014.83,1176.5 5140.5,1177C 5151.43,1195.26 5154.6,1214.76 5150,1235.5C 5145.7,1251.8 5135.2,1260.97 5118.5,1263C 4981.83,1263.67 4845.17,1263.67 4708.5,1263C 4680.68,1259.18 4664.85,1243.35 4661,1215.5C 4660.33,992.5 4660.33,769.5 4661,546.5C 4664.94,516.726 4681.77,500.393 4711.5,497.5 Z"/></g>
<g><path style="opacity:0.988" fill="#f8f8f8" d="M 5483.5,497.5 C 5666.5,497.333 5849.5,497.5 6032.5,498C 6045.71,519.423 6047.87,541.923 6039,565.5C 6033.04,577.07 6023.54,583.57 6010.5,585C 5939.5,585.5 5868.5,585.667 5797.5,585.5C 5797.5,810.833 5797.5,1036.17 5797.5,1261.5C 5778.37,1268.13 5758.7,1270.63 5738.5,1269C 5721.95,1268.15 5709.12,1260.98 5700,1247.5C 5698.27,1243.64 5696.93,1239.64 5696,1235.5C 5694.51,1018.85 5694.01,802.186 5694.5,585.5C 5616.17,585.667 5537.83,585.5 5459.5,585C 5448.31,565.692 5445.48,545.192 5451,523.5C 5456.43,507.889 5467.26,499.222 5483.5,497.5 Z"/></g>
<g><path style="opacity:0.991" fill="#f7f7f7" d="M 6437.5,497.5 C 6578.83,497.167 6720.17,497.5 6861.5,498.5C 6874.21,520.863 6875.71,543.863 6866,567.5C 6861.11,576.53 6853.61,582.03 6843.5,584C 6725.54,585.49 6607.54,585.99 6489.5,585.5C 6489.5,666.167 6489.5,746.833 6489.5,827.5C 6600.5,827.167 6711.5,827.5 6822.5,828.5C 6833.36,846.976 6836.19,866.643 6831,887.5C 6826.83,902.001 6817.33,910.501 6802.5,913C 6698.17,913.5 6593.83,913.667 6489.5,913.5C 6489.5,1001.17 6489.5,1088.83 6489.5,1176.5C 6615.5,1176.17 6741.5,1176.5 6867.5,1177.5C 6879.92,1199.34 6881.75,1222.01 6873,1245.5C 6866.7,1255.74 6857.53,1261.57 6845.5,1263C 6708.83,1263.67 6572.17,1263.67 6435.5,1263C 6408.58,1259.42 6392.75,1244.25 6388,1217.5C 6387.33,992.833 6387.33,768.167 6388,543.5C 6393.16,515.832 6409.66,500.498 6437.5,497.5 Z"/></g>
<g><path style="opacity:1" fill="#88d6a7" d="M 1567.5,418.5 C 1532.83,418.5 1498.17,418.5 1463.5,418.5C 1463.5,452.833 1463.5,487.167 1463.5,521.5C 1498.17,521.5 1532.83,521.5 1567.5,521.5C 1532.67,522.498 1497.67,522.832 1462.5,522.5C 1462.5,487.5 1462.5,452.5 1462.5,417.5C 1497.67,417.168 1532.67,417.502 1567.5,418.5 Z"/></g>
<g><path style="opacity:0.998" fill="#01447e" d="M 1500.5,1518.5 C 1493.34,1511.5 1486,1504.67 1478.5,1498C 1354.99,1373.33 1230.99,1249.16 1106.5,1125.5C 1151.6,1104.4 1196.93,1104.23 1242.5,1125C 1255.53,1131.51 1267.53,1139.51 1278.5,1149C 1345.33,1215.83 1412.17,1282.67 1479,1349.5C 1515.61,1396.14 1524.94,1447.8 1507,1504.5C 1505.49,1509.57 1503.32,1514.23 1500.5,1518.5 Z"/></g>
<g><path style="opacity:0.999" fill="#e53a3a" d="M 1106.5,1125.5 C 1230.99,1249.16 1354.99,1373.33 1478.5,1498C 1486,1504.67 1493.34,1511.5 1500.5,1518.5C 1494.77,1531.62 1487.27,1543.62 1478,1554.5C 1438.3,1594.37 1398.47,1634.03 1358.5,1673.5C 1223.17,1537.83 1087.83,1402.17 952.5,1266.5C 990.965,1227.53 1029.63,1188.7 1068.5,1150C 1079.72,1139.61 1092.39,1131.45 1106.5,1125.5 Z"/></g>
<g><path style="opacity:0.999" fill="#f25a3b" d="M 619.5,1155.5 C 648.954,1183.79 680.621,1209.29 714.5,1232C 743.315,1250.16 773.815,1264.99 806,1276.5C 833.703,1286.17 862.203,1290.67 891.5,1290C 914.682,1289.11 935.015,1281.28 952.5,1266.5C 1087.83,1402.17 1223.17,1537.83 1358.5,1673.5C 1316.63,1715.12 1266.96,1743.96 1209.5,1760C 1173.63,1769.52 1137.29,1775.02 1100.5,1776.5C 1088.17,1776.5 1075.83,1776.5 1063.5,1776.5C 978.784,1771.33 896.784,1753.16 817.5,1722C 702.365,1675.47 596.365,1614.13 499.5,1538C 461.358,1508.2 424.691,1476.54 389.5,1443C 379.964,1433.63 370.631,1424.13 361.5,1414.5C 447.467,1328.2 533.467,1241.87 619.5,1155.5 Z"/></g>
</svg>
